PathFileType	4	(X/Y/Z)	RBDS023\RBDS023runT35.trc
DataRate	CameraRate	NumFrames	NumMarkers	Units	OrigDataRate	OrigDataStartFrame	OrigNumFrames
150.000000	150.000000	4	33	mm	150.000000	562	4500
Frame#	Time	L.ASIS			L.Heel.Bottom			L.Heel.Lateral			L.Heel.Top			L.Iliac.Crest			L.MT1			L.MT5			L.PSIS			L.Shank.Bottom.Lateral			L.Shank.Bottom.Medial			L.Shank.Top.Lateral			L.Shank.Top.Medial			L.Thigh.Bottom.Lateral			L.Thigh.Bottom.Medial			L.Thigh.Top.Lateral			L.Thigh.Top.Medial			R.ASIS			R.ASY			R.Heel.Bottom			R.Heel.Lateral			R.Heel.Top			R.Iliac.Crest			R.MT1			R.MT5			R.PSIS			R.Shank.Bottom.Lateral			R.Shank.Bottom.Medial			R.Shank.Top.Lateral			R.Shank.Top.Medial			R.Thigh.Bottom.Lateral			R.Thigh.Bottom.Medial			R.Thigh.Top.Lateral			R.Thigh.Top.Medial			
		X1	Y1	Z1	X2	Y2	Z2	X3	Y3	Z3	X4	Y4	Z4	X5	Y5	Z5	X6	Y6	Z6	X7	Y7	Z7	X8	Y8	Z8	X9	Y9	Z9	X10	Y10	Z10	X11	Y11	Z11	X12	Y12	Z12	X13	Y13	Z13	X14	Y14	Z14	X15	Y15	Z15	X16	Y16	Z16	X17	Y17	Z17	X18	Y18	Z18	X19	Y19	Z19	X20	Y20	Z20	X21	Y21	Z21	X22	Y22	Z22	X23	Y23	Z23	X24	Y24	Z24	X25	Y25	Z25	X26	Y26	Z26	X27	Y27	Z27	X28	Y28	Z28	X29	Y29	Z29	X30	Y30	Z30	X31	Y31	Z31	X32	Y32	Z32	X33	Y33	Z33	

563	3.746666666666667	2348.725463973235	1002.862488492214	887.5439214981826	2355.798188634563	24.1454753447177	974.5056699265125	2379.474651264863	44.82364578115464	933.2898470984899	2365.020790064129	70.07721633131196	976.4994879113145	2270.535065260796	1073.71836854617	836.9992160268092	2582.457360301898	47.41642580489466	993.5221443545739	2539.859642269499	36.49665281681352	882.9033280525603	2169.452130478391	1032.631435540045	941.5970435373687	2431.454414149062	152.2418658421649	904.7963506678318	2388.156471775388	153.3488930875673	931.9630121841491	2420.672791751039	228.4831628733109	879.8736062992978	2377.967432778074	234.8093137848551	910.7321378993212	2387.308815131072	665.0774566387006	825.2676994411796	2330.527416595707	637.7262014406876	857.7066084272336	2332.347838973966	759.9246458995519	814.799547855717	2277.964905617662	734.4809175412571	846.6391500820066	2354.043848519273	988.8028588336308	1099.20514177597	1746.325365648945	357.4350222147635	1061.3107293116	1743.345991674616	555.8844973284711	1026.900863181878	1752.051481436012	528.6934163835957	1074.292338657659	1785.066132205201	533.6921115200946	1030.584975029214	2299.376729843279	1078.756076903128	1141.87456838665	1690.770828434078	335.9553161333279	1015.122150016391	1692.289164434026	378.3143317684705	1122.730476744363	2174.687394369486	1033.165119742153	1052.760630739655	1861.335240602284	471.5463987208195	1098.193013284105	1859.153997039464	515.983203287824	1064.360256723051	1940.080644274154	487.8609324672147	1111.455812325574	1936.846117287863	530.1137147080957	1078.167794441679	2210.41092765362	589.0980985457331	1129.681229183513	2163.537447278205	595.4321435594298	1072.99895040835	2204.29419738634	697.6865570136983	1143.293861782897	2160.55590387191	703.9184595109866	1089.316697616962	
564	3.753333333333333	2345.769979569573	997.4756419430749	887.3283978240248	2333.1625720378	25.95915891763526	974.8352813661845	2357.673244166679	46.59535528581576	933.9861369275978	2344.139946450741	71.77817176819303	977.5498322993312	2267.492093190023	1066.796267985471	837.2183996733689	2561.591551289762	41.57392122872508	995.1674327649645	2518.393065183319	33.96472338929847	883.4679506445373	2166.634236836584	1026.708505699247	943.2720170556941	2416.854492128369	150.9254503062504	905.9421557160889	2373.3368574862	154.3698965034411	932.5001918290599	2410.066733684054	227.4081978336805	880.2349981890111	2367.400981457799	236.0730416528431	910.6174175462525	2386.281123063732	661.372731301881	823.2751191145926	2330.318016471111	633.4922845490121	856.5787704406597	2330.19471958753	755.7017964279416	813.4229778759068	2276.582022970058	729.7381145194664	846.0569554928619	2352.458132557866	982.4845027578059	1098.622120663945	1758.531951808002	362.2159143717673	1062.634736183041	1758.893124554602	560.7475883635344	1028.822266906962	1767.761852328498	533.2686662501444	1075.964305551085	1800.189517076282	537.6848608579576	1031.698884782246	2298.40736122029	1071.236440347932	1143.004786941434	1702.13802719874	341.7398335492495	1017.394901883822	1706.004735595767	383.7921801970696	1124.80104576912	2172.625896012579	1026.470436802251	1054.206267398377	1875.694913167157	473.2978296837831	1099.184100494188	1874.631259195829	517.9986468889853	1065.695722305316	1954.898281373557	487.2677078340838	1112.385458888354	1952.731877975257	529.843358423993	1079.365313830294	2220.153245422706	581.4910974146662	1129.740566618149	2172.560313588303	586.3239523076199	1073.532881895505	2210.578550351276	689.8228133151491	1143.542461976403	2166.294797155741	694.654751662292	1089.934982213762	
565	3.76	2342.724090708438	992.2596578372105	887.0052059093914	2310.564900414121	27.72523530104524	975.1259481688882	2335.670511706268	48.43034299330678	934.5871982612776	2322.87583027744	73.42083334213011	978.4782545701007	2264.194994116172	1059.82782730528	837.5069697825998	2540.141320439498	37.52708684826887	996.5297311738972	2496.458338076721	32.74812190747755	883.8455518084611	2163.7455943233	1021.061385574169	944.9626273994924	2401.327101533231	150.0720442744148	906.9388291987968	2357.74655169059	155.8522610209949	932.952143202044	2398.4746040214	226.6044134671322	880.4867076367731	2356.016677366225	237.575970390622	910.4724419497087	2384.380925355837	657.5039025197835	821.3520655561911	2329.242264461262	629.3264949103901	855.6642548469376	2327.479041237447	751.4862268357509	812.0650394720179	2274.639558550336	725.2131454006759	845.6052245866708	2350.680241793491	976.2644467327514	1098.062625734935	1772.070203939181	365.6556811489803	1063.760737962386	1774.531728769331	564.207969761455	1030.801452991029	1783.791484289787	536.4389737333627	1077.668896978064	1815.551964646315	540.5159635886506	1032.793303319951	2296.985863959246	1063.897596821562	1144.118533673987	1714.93528369973	345.905588281644	1019.506495221438	1721.056283977259	387.4419206066893	1126.72108640892	2170.489684100483	1020.237742402196	1055.498196758234	1890.692506293317	474.1740640758669	1100.072938686592	1890.586393485671	519.1396467228269	1066.976052091718	1970.235970139994	486.1228077416457	1113.266597501666	1968.994817914197	528.9973767824307	1080.522929045097	2230.374136202878	574.5181876944692	1129.934650533405	2181.965765563783	577.7188599011849	1074.35198962065	2217.212974234524	682.4677275727771	1143.93029232277	2172.265453915231	685.7757257774244	1090.854408338434	
566	3.766666666666667	2339.660594645867	987.3227300564561	886.5258311136279	2287.997555177227	29.32655661716628	975.3709849798688	2313.481141816478	50.16814105087985	935.0720850954906	2301.245829076608	74.90162443047855	979.2473928192476	2260.631908531624	1052.949481271301	837.8662888160053	2518.195206374457	35.04318850643323	997.5647226238079	2474.123613112872	32.53804969013062	884.0433760433361	2160.840109255076	1015.786386595626	946.6170351116267	2384.813111400854	149.5293924945527	907.7317709793666	2341.318506991462	157.5936505601255	933.2698588679523	2385.776622946371	225.9346751609942	880.6061922882681	2343.675241009907	239.1327987155191	910.2688634427615	2381.515708121574	653.4629811581558	819.6069178707593	2327.156750579525	625.2538710702993	855.0203508917094	2324.184527767368	747.3094669913057	810.8095444388775	2272.074245551886	720.972068068579	845.3230469007675	2348.746412931993	970.2806303453162	1097.5447145371	1786.830336469299	367.6907707180353	1064.666988537592	1790.088010699487	566.2637287017516	1032.823590931161	1799.969595421728	538.2061446099797	1079.397362474888	1830.99608773747	542.1995985057177	1033.8842283337	2295.014421697924	1056.911669964047	1145.161750967859	1729.032060743901	348.3705509389836	1021.4232245072	1737.287088718525	389.2285311345295	1128.475010915598	2168.308277921206	1014.547626731014	1056.585094519212	1906.205417341804	474.1969329426634	1100.850224267056	1906.87155091739	519.4345490523571	1068.184294616268	1985.990027327439	484.4937520317034	1114.076610577888	1985.50746693727	527.646306752148	1081.616199226382	2241.084482450481	568.3115149401032	1130.248112662323	2191.817670299845	569.7365888267173	1075.413955777973	2224.212533840396	675.7396460456187	1144.431757049045	2178.522371927583	677.3831296546815	1092.027666435926	
